Coordinates
version=1
nRows=29
nColumns=22
inDegrees=yes

Units are S.I. units (second, meters, Newtons, ...)
If the header above contains a line with 'inDegrees', this indicates whether rotational values are in degrees (yes) or radians (no).

endheader
time	pelvis_tilt	pelvis_list	pelvis_rotation	pelvis_tx	pelvis_ty	pelvis_tz	hip_flexion_r	hip_adduction_r	hip_rotation_r	knee_angle_r	ankle_angle_r	subtalar_angle_r	hip_flexion_l	hip_adduction_l	hip_rotation_l	knee_angle_l	ankle_angle_l	subtalar_angle_l	lumbar_extension	lumbar_bending	lumbar_rotation
      1.79000000	     -2.06441448	     -4.41123776	    131.40686901	     -0.63299393	      0.90623415	      0.73066506	     -9.68026595	      0.31516249	      3.91240290	    -34.79432276	     -2.06221334	     -4.91915073	     27.91654824	      3.16581746	      7.50981570	    -28.54833403	      2.77944847	      6.43316751	     -4.37182038	     -7.17681690	     -0.27257328
      1.80000000	     -2.40191370	     -4.65862996	    130.92292927	     -0.64017378	      0.90815650	      0.72331975	     -8.18224809	     -0.46421163	      2.84802633	    -37.83099018	     -4.83747963	     -4.73208199	     26.92417774	      3.43643486	      6.95779761	    -28.18792530	      3.29583146	      6.25885464	     -4.49248422	     -7.62174106	     -0.61115701
      1.81000000	     -2.71346986	     -4.90619819	    130.36202259	     -0.64698863	      0.90993685	      0.71616744	     -6.46510811	     -1.29766354	      1.87989308	    -41.04511915	     -7.50916354	     -4.62264574	     25.95910637	      3.67296547	      6.35231260	    -27.78684379	      3.78024830	      6.04644072	     -4.63020028	     -8.02131389	     -0.93003273
      1.82000000	     -3.02371468	     -5.12649674	    129.72906187	     -0.65343206	      0.91162184	      0.70915239	     -4.60069006	     -2.15530220	      1.06748245	    -44.36214149	    -10.04142001	     -4.53327128	     24.97370437	      3.88448416	      5.74772350	    -27.33564571	      4.23505388	      5.88697960	     -4.82270246	     -8.38790054	     -1.23388902
      1.83000000	     -3.28494664	     -5.42387783	    129.03756054	     -0.65954955	      0.91290810	      0.70236352	     -2.45032729	     -3.07353798	      0.37410184	    -47.81614540	    -12.16139446	     -4.26809994	     24.16993578	      4.09962644	      5.03786117	    -26.97151152	      4.70572147	      5.52655437	     -4.93489162	     -8.74838590	     -1.52692760
      1.84000000	     -3.58278915	     -5.67576212	    128.31371955	     -0.66537922	      0.91412421	      0.69567237	     -0.25681931	     -3.98162209	     -0.15355125	    -51.23818066	    -13.96413907	     -3.87994447	     23.32924586	      4.32129519	      4.33311900	    -26.60434389	      5.12060717	      5.28335869	     -5.13911077	     -9.10328585	     -1.82742282
      1.85000000	     -3.84272154	     -5.92323179	    127.58396470	     -0.67094496	      0.91511756	      0.68909550	      2.04725649	     -4.80789192	     -0.50363371	    -54.58989133	    -15.29933898	     -3.23052718	     22.56106245	      4.52833635	      3.67667995	    -26.28496691	      5.61774903	      4.98706167	     -5.33406500	     -9.41770449	     -2.14026564
      1.86000000	     -4.12984024	     -6.13517905	    126.85957539	     -0.67632452	      0.91603779	      0.68256945	      4.34552150	     -5.57430791	     -0.71973399	    -57.78836115	    -16.10254461	     -2.55798023	     21.78350394	      4.74857397	      3.01386100	    -25.99748582	      6.04905962	      4.75952834	     -5.59019915	     -9.72754347	     -2.50294247
      1.87000000	     -4.42610828	     -6.28990475	    126.16333839	     -0.68153827	      0.91695989	      0.67603175	      6.58997503	     -6.21818329	     -0.81136259	    -60.76189458	    -16.36326496	     -2.01492162	     20.95254203	      4.96360408	      2.41757283	    -25.68240441	      6.46156724	      4.58676862	     -5.90481762	    -10.01134899	     -2.92312919
      1.88000000	     -4.64772662	     -6.40342617	    125.54349790	     -0.68663809	      0.91775163	      0.66956648	      8.83142289	     -6.68112288	     -0.85537111	    -63.49238517	    -16.08664508	     -1.42468123	     20.20861538	      5.12360425	      1.88458843	    -25.48262766	      6.95247529	      4.32124101	     -6.21069754	    -10.19415985	     -3.38461188
      1.89000000	     -4.90320857	     -6.42943447	    124.95838286	     -0.69165555	      0.91870643	      0.66296811	     10.90768767	     -7.02449005	     -0.84619554	    -65.90059427	    -15.29883484	     -1.17078274	     19.31792349	      5.28011681	      1.42596158	    -25.18765410	      7.37551512	      4.17491706	     -6.60360465	    -10.35553379	     -3.89989738
      1.90000000	     -5.08937964	     -6.41621607	    124.44642395	     -0.69659421	      0.91961734	      0.65636160	     12.94052535	     -7.20461552	     -0.84347478	    -68.00994941	    -14.22660128	     -1.01917951	     18.47158864	      5.37691587	      1.01394793	    -24.95061781	      7.84073578	      3.93479668	     -6.97761670	    -10.42326895	     -4.46281672
      1.91000000	     -5.24902218	     -6.31152140	    123.98774319	     -0.70146914	      0.92067530	      0.64961623	     14.81109563	     -7.22392727	     -0.84610135	    -69.76046851	    -12.88372981	     -0.99048110	     17.52387276	      5.41451376	      0.67701198	    -24.65251144	      8.25713931	      3.77357433	     -7.39720531	    -10.40964129	     -5.05845256
      1.92000000	     -5.36269198	     -6.17658657	    123.57572582	     -0.70625636	      0.92173499	      0.64279800	     16.61001760	     -7.12645092	     -0.87458530	    -71.18616657	    -11.46978443	     -1.08631142	     16.58159358	      5.40412950	      0.36172643	    -24.36232163	      8.68919066	      3.54782634	     -7.79739724	    -10.33638635	     -5.66763090
      1.93000000	     -5.42860341	     -5.96981596	    123.22272817	     -0.71093942	      0.92285923	      0.63590604	     18.27942216	     -6.88058114	     -0.93321659	    -72.26707316	    -10.03585346	     -1.16696388	     15.60252204	      5.32308617	      0.11393937	    -24.07317526	      9.13404942	      3.39094623	     -8.22665296	    -10.18000296	     -6.29515226
      1.94000000	     -5.44489980	     -5.75371343	    122.88949478	     -0.71556448	      0.92397490	      0.62889697	     19.88056328	     -6.55617169	     -1.02735280	    -73.00676765	     -8.62958889	     -1.40281716	     14.61162732	      5.18915505	     -0.16777569	    -23.72574520	      9.54167821	      3.11495346	     -8.59881144	     -9.97007441	     -6.92223321
      1.95000000	     -5.39404163	     -5.51495175	    122.60174739	     -0.72005378	      0.92504546	      0.62187866	     21.41791575	     -6.11737632	     -1.14680080	    -73.42279230	     -7.31858880	     -1.39575846	     13.63170363	      4.99730950	     -0.33768281	    -23.36016620	      9.97611564	      3.04197095	     -8.94873010	     -9.69036360	     -7.54504111
      1.96000000	     -5.32264226	     -5.24440364	    122.32972832	     -0.72441412	      0.92610918	      0.61480813	     22.84695976	     -5.63064223	     -1.30855953	    -73.51385255	     -6.01127910	     -1.65850462	     12.63700474	      4.75672777	     -0.58465630	    -22.99299667	     10.36883211	      2.70237517	     -9.31026721	     -9.38050011	     -8.17027989
      1.97000000	     -5.20146994	     -5.00941460	    122.08345316	     -0.72867918	      0.92701372	      0.60776098	     24.26184717	     -5.12400371	     -1.50068271	    -73.31225758	     -4.79378380	     -1.66804552	     11.70530556	      4.49809042	     -0.79147599	    -22.62306560	     10.74545061	      2.54487430	     -9.60006334	     -9.04505917	     -8.81559457
      1.98000000	     -5.05441193	     -4.78812097	    121.85142816	     -0.73289883	      0.92781598	      0.60068631	     25.61035917	     -4.63712010	     -1.75030902	    -72.80618190	     -3.64159484	     -1.65028868	     10.78384712	      4.22560439	     -1.00541433	    -22.22207984	     11.10969294	      2.35902201	     -9.84881982	     -8.69147940	     -9.45207943
      1.99000000	     -4.90029659	     -4.58155952	    121.62615987	     -0.73706876	      0.92851584	      0.59357355	     26.88059526	     -4.19011385	     -2.04414970	    -72.00700405	     -2.56293583	     -1.59947432	      9.86496293	      3.95813858	     -1.21815980	    -21.79599348	     11.46139688	      2.13564390	    -10.07140849	     -8.34160392	    -10.08467247
      2.00000000	     -4.75651682	     -4.38873835	    121.39086464	     -0.74124039	      0.92912487	      0.58638106	     28.05577771	     -3.81539720	     -2.38096036	    -70.92371611	     -1.58560161	     -1.52044097	      8.91936656	      3.71467319	     -1.42703046	    -21.32030524	     11.79226300	      1.84840936	    -10.27087949	     -8.00500823	    -10.69044410
      2.01000000	     -4.62767774	     -4.23926307	    121.14973031	     -0.74540421	      0.92955878	      0.57913761	     29.16557536	     -3.53132374	     -2.74833919	    -69.58313785	     -0.68539369	     -1.40596328	      8.00999203	      3.50710699	     -1.68650906	    -20.86163799	     12.11821327	      1.65703012	    -10.42804682	     -7.70366757	    -11.31786854
      2.02000000	     -4.51780402	     -4.08953855	    120.89087862	     -0.74956986	      0.92991620	      0.57175773	     30.14524735	     -3.31680746	     -3.15536792	    -67.96677118	      0.07765346	     -1.29256457	      7.04636377	      3.32415646	     -1.93230487	    -20.34188251	     12.43579233	      1.40792649	    -10.58063094	     -7.41996437	    -11.89761932
      2.03000000	     -4.41510132	     -3.98761808	    120.63405219	     -0.75371956	      0.93006098	      0.56431618	     31.05506720	     -3.18103064	     -3.59291146	    -66.10483987	      0.76407862	     -1.18445381	      6.14122620	      3.17103701	     -2.23020733	    -19.86366105	     12.77800834	      1.26022526	    -10.68633483	     -7.16561022	    -12.49651887
      2.04000000	     -4.31996424	     -3.89441465	    120.36730857	     -0.75782974	      0.93007622	      0.55673372	     31.84088241	     -3.08898975	     -4.06038653	    -63.98090436	      1.32002907	     -1.09977654	      5.22075785	      3.03167743	     -2.52615208	    -19.36404099	     13.12497373	      1.12871235	    -10.77740662	     -6.92602842	    -13.06478048
      2.05000000	     -4.22615482	     -3.82597657	    120.09478569	     -0.76189232	      0.92991003	      0.54901790	     32.51962515	     -3.03380060	     -4.55160589	    -61.60417746	      1.77940435	     -1.04160243	      4.32384220	      2.90629032	     -2.83707335	    -18.88009065	     13.48481541	      1.03759752	    -10.83526688	     -6.70414059	    -13.61857881
      2.06000000	     -4.12240912	     -3.79045448	    119.82138641	     -0.76588923	      0.92953614	      0.54116171	     33.10098916	     -2.99979913	     -5.06845802	    -58.97802744	      2.15969656	     -0.99808665	      3.46577178	      2.78610419	     -3.16075606	    -18.41223535	     13.85304203	      0.97954589	    -10.84650510	     -6.49834954	    -14.13022946
      2.07000000	     -4.03722010	     -3.74121133	    119.53173775	     -0.76975179	      0.92905570	      0.53313107	     33.51996046	     -2.94957949	     -5.55988939	    -56.09226002	      2.39230827	     -0.98527205	      2.57572475	      2.67083915	     -3.49380641	    -17.94140414	     14.21637426	      0.92332282	    -10.87880615	     -6.31666981	    -14.64640899
